<svg xmlns="http://www.w3.org/2000/svg" width="56" height="56" viewBox="0 0 56 56">
    <g fill="none" fill-rule="evenodd">
        <g fill="#050505" fill-rule="nonzero">
            <path d="M28 5.411c7.357 0 8.23.028 11.134.161 2.687.123 4.146.571 5.117.95 1.287.499 2.204 1.097 3.168 2.06.965.965 1.561 1.882 2.061 3.168.378.972.826 2.43.95 5.117.132 2.905.16 3.777.16 11.134s-.028 8.23-.16 11.135c-.124 2.686-.572 4.145-.95 5.117-.5 1.286-1.097 2.203-2.06 3.168-.965.964-1.882 1.56-3.169 2.06-.971.379-2.43.827-5.117.95-2.905.133-3.776.16-11.134.16-7.358 0-8.23-.027-11.134-.16-2.687-.123-4.146-.571-5.117-.95-1.287-.5-2.204-1.097-3.168-2.06-.965-.965-1.561-1.882-2.061-3.168-.378-.972-.826-2.43-.95-5.117-.131-2.907-.159-3.779-.159-11.136 0-7.357.028-8.23.161-11.134.123-2.687.571-4.146.95-5.117.498-1.285 1.095-2.204 2.06-3.167.965-.965 1.882-1.561 3.168-2.06.972-.379 2.43-.827 5.117-.95 2.904-.133 3.776-.161 11.133-.161zm0-4.964c-7.483 0-8.421.032-11.361.165-2.932.134-4.935.599-6.688 1.28-1.811.705-3.349 1.647-4.88 3.179C3.539 6.602 2.597 8.14 1.893 9.95 1.21 11.704.746 13.707.612 16.64.477 19.579.447 20.517.447 28c0 7.483.032 8.421.165 11.361.134 2.933.599 4.936 1.28 6.688.705 1.811 1.647 3.349 3.179 4.88 1.531 1.532 3.069 2.474 4.88 3.178 1.753.682 3.756 1.147 6.688 1.281 2.939.135 3.877.165 11.361.165 7.484 0 8.421-.032 11.361-.165 2.933-.134 4.936-.599 6.688-1.28 1.811-.705 3.349-1.647 4.88-3.179 1.532-1.531 2.474-3.069 3.178-4.88.682-1.753 1.147-3.756 1.281-6.688.135-2.939.165-3.877.165-11.361 0-7.484-.032-8.421-.165-11.361-.134-2.933-.599-4.936-1.28-6.688-.705-1.811-1.647-3.349-3.179-4.88-1.531-1.532-3.069-2.474-4.88-3.178C44.296 1.21 42.293.746 39.36.612 36.421.477 35.483.447 28 .447z"/>
            <path d="M28 13.85c-7.815 0-14.15 6.335-14.15 14.15S20.185 42.15 28 42.15 42.15 35.815 42.15 28 35.815 13.85 28 13.85zm0 23.334a9.184 9.184 0 1 1 0-18.368 9.184 9.184 0 0 1 0 18.368z"/>
            <circle cx="42.708" cy="13.292" r="3.307"/>
        </g>
        <path d="M0 0h56v56H0z"/>
    </g>
</svg>
