<svg xmlns="http://www.w3.org/2000/svg" width="52" height="52" viewBox="0 0 52 52">
    <g fill="none" fill-rule="evenodd">
        <path d="M-6-6h64v64H-6z"/>
        <path stroke="#000" stroke-linecap="round" stroke-linejoin="round" stroke-width="4" d="M26 13.143V2c13.255 0 24 10.745 24 24S39.255 50 26 50 2 39.255 2 26c0-7.34 3.295-13.911 8.487-18.313"/>
        <path fill="#000" fill-rule="nonzero" d="M14.977 14.706l6.414 10.713c.586.979 1.249 1.91 1.983 2.784a3.428 3.428 0 1 0 5.253-4.407 21.54 21.54 0 0 0-2.397-2.436l-9.437-8.177c-1.032-.893-2.517.353-1.816 1.523z"/>
    </g>
</svg>
